<?xml version="1.0" encoding="utf-8"?>
<!-- Generator: Adobe Illustrator 17.0.0, SVG Export Plug-In . SVG Version: 6.00 Build 0)  -->
<!DOCTYPE svg PUBLIC "-//W3C//DTD SVG 1.1//EN" "http://www.w3.org/Graphics/SVG/1.1/DTD/svg11.dtd">
<svg version="1.1" id="Layer_1" xmlns="http://www.w3.org/2000/svg" xmlns:xlink="http://www.w3.org/1999/xlink" x="0px" y="0px"
	 width="960px" height="560px" viewBox="0 0 960 560" enable-background="new 0 0 960 560" xml:space="preserve">
<path fill="#E0C1C4" stroke="#8E2E1E" stroke-miterlimit="10" d="M491.648,301.723c-0.575-4.572-1.15-9.144-1.814-14.416
	c-7.653,5.265-14.7,10.114-22.936,15.78c0-2.963-0.134-4.65,0.021-6.311c1.282-13.747,2.604-27.491,3.965-41.231
	c0.111-1.119,0.25-2.744,0.972-3.21c3.795-2.449,2.334-4.67-0.188-6.781c9.529-9.779,7.96-8.573,17.108-0.169
	c-2.164,2.094-5.017,4.312-0.332,6.827c0.581,0.312,0.643,1.8,0.743,2.764c1.499,14.565,2.98,29.131,4.397,43.704
	c0.094,0.97-0.367,1.994-0.569,2.992C492.559,301.69,492.103,301.707,491.648,301.723z M488.324,271.907
	c-15.149,6.712-20.053,13.798-18.025,25.889c5.919-4.142,11.763-8.138,17.469-12.323c0.88-0.645,1.608-2.169,1.575-3.261
	C489.243,278.943,488.731,275.687,488.324,271.907z M471.943,279.403c4.897-3.411,9.933-6.853,14.864-10.438
	c0.638-0.464,1.067-1.695,1.019-2.539c-0.2-3.54-0.618-7.069-0.974-10.78C476.392,260.51,469.027,266.627,471.943,279.403z
	 M472.934,261.508c3.864-2.659,6.609-4.548,10.515-7.235c-4.135,0-6.782,0-9.782,0C473.451,256.394,473.257,258.311,472.934,261.508
	z"/>
<path fill="#FF9100" stroke="#B55F09" stroke-miterlimit="10" d="M485.106,322.238c0.979-0.856,1.874-1.843,2.954-2.543
	c2.37-1.535,4.802-4.112,7.265-4.178c14.978-0.404,29.973-0.227,44.961-0.219c0.424,0,0.848,0.281,1.317,1.128
	c-1.522,0.09-3.044,0.256-4.565,0.257c-13.324,0.012-26.648,0.06-39.971-0.056c-3.637-0.032-6.398,0.837-8.326,4.231
	c-0.626,1.102-2.489,1.909-3.88,2.079c-2.625,0.321-5.401,0.484-7.957-0.046c-2.13-0.442-4.018-2.005-6.045-3.005
	c-2.24-1.105-4.498-3.004-6.783-3.055c-13.317-0.3-26.644-0.159-39.968-0.167c-1.589-0.001-3.178,0-4.861-1.033
	c1.355-0.114,2.71-0.326,4.066-0.328c12.824-0.021,25.648,0.045,38.472-0.027c4.703-0.026,9.037,0.274,11.218,5.467
	c0.302,0.719,1.763,0.951,2.872,1.501c0.436-5.208-2.4-9.208-7.513-10.329c-3.044-0.667-6.275-0.627-9.423-0.645
	c-11.633-0.067-23.266-0.027-34.983-1.109c1.771,0,3.542,0,5.313,0c11.658-0.003,23.317,0.038,34.974-0.026
	c6.559-0.036,11.125,2.72,13.578,8.925c0.426,1.078,1.495,1.902,2.268,2.843c0.881-1.026,2.126-1.913,2.58-3.103
	c1.837-4.806,5.211-8.257,10.213-8.385c14.429-0.369,28.874-0.13,43.319,0.843c-11.762,0-23.525-0.041-35.286,0.029
	c-2.983,0.018-6.051,0.019-8.928,0.685c-4.748,1.1-7.731,4.082-8.102,9.027C484.293,321.412,484.699,321.825,485.106,322.238z"/>
<path fill="#FF9100" stroke="#B55F09" stroke-miterlimit="10" d="M518.273,299.393c-1.444-16.259-9.314-28.329-24.823-36.743
	C507.801,266.16,520.102,285.697,518.273,299.393z"/>
<path fill="#FF9100" stroke="#B55F09" stroke-miterlimit="10" d="M478.832,312.209c8.094-7.993,18.305-7.42,28.506-7.192
	c8.274,0.185,16.556,0.038,24.838,1.223c-7.106,0-14.211,0.003-21.317-0.001c-4.833-0.003-9.666,0.006-14.498-0.03
	c-5.402-0.039-10.159,1.405-13.94,5.535c-0.842,0.92-2.007,3.619-3.47,0.342L478.832,312.209z"/>
<path fill="#FF9100" stroke="#B55F09" stroke-miterlimit="10" d="M478.95,312.087c-5.385-4.981-11.875-6.085-18.963-5.918
	c-10.609,0.25-21.228,0.065-31.875-1.119c3.736,0,7.471-0.004,11.207,0.001c8.993,0.011,17.994-0.178,26.978,0.119
	c5.195,0.172,10.232,1.362,12.538,7.035C478.832,312.209,478.95,312.087,478.95,312.087z"/>
<path fill="#E0C1C4" stroke="#8E2E1E" stroke-miterlimit="10" d="M488.863,248.536c8.117,0,16.234,0,24.351,0
	c0.01,0.366,0.019,0.731,0.029,1.097c-8.119,0-16.238,0-24.357,0C488.879,249.267,488.871,248.902,488.863,248.536z"/>
<path fill="#E0C1C4" stroke="#8E2E1E" stroke-miterlimit="10" d="M471.446,249.935c-8.088,0-16.176,0-24.264,0
	c-0.006-0.42-0.011-0.84-0.017-1.259c8.081,0,16.163,0,24.244,0C471.421,249.095,471.434,249.515,471.446,249.935z"/>
<path fill="#FF9100" stroke="#B55F09" stroke-miterlimit="10" d="M454.043,271.032c-7.078,7.946-10.724,17.315-12.087,27.708
	C441.738,287.64,446.053,278.488,454.043,271.032z"/>
<path fill="#E0C1C4" stroke="#8E2E1E" stroke-miterlimit="10" d="M450.608,240.123c5.954,1.552,11.908,3.104,18.626,4.856
	C465.49,247.154,453.929,244.434,450.608,240.123z"/>
<path fill="#E0C1C4" stroke="#8E2E1E" stroke-miterlimit="10" d="M491.848,244.808c5.926-1.566,11.852-3.131,17.779-4.697
	c0.21,0.771,0.419,1.541,0.629,2.312c-5.915,1.584-11.831,3.168-17.746,4.751C492.289,246.385,492.069,245.597,491.848,244.808z"/>
<path fill="#E0C1C4" stroke="#8E2E1E" stroke-miterlimit="10" d="M468.605,253.409c-5.949,1.588-11.899,3.177-17.848,4.765
	c-0.202-0.708-0.405-1.416-0.607-2.124c5.927-1.632,11.854-3.264,17.78-4.897C468.154,251.906,468.38,252.657,468.605,253.409z"/>
<path fill="#E0C1C4" stroke="#8E2E1E" stroke-miterlimit="10" d="M492.398,251.172c5.914,1.574,11.828,3.147,18.789,4.999
	c-4.407,1.845-15.371-0.778-19.158-3.752C492.153,252.004,492.275,251.588,492.398,251.172z"/>
<path fill="#E0C1C4" stroke="#8E2E1E" stroke-miterlimit="10" d="M462.424,298.144c-4.492,0-8.984,0-13.476,0
	c-0.01-0.399-0.021-0.798-0.031-1.196c4.434,0,8.868,0,13.301,0C462.287,297.346,462.356,297.745,462.424,298.144z"/>
<path fill="#E0C1C4" stroke="#8E2E1E" stroke-miterlimit="10" d="M462.331,292.672c-4.474,0-8.948,0-13.422,0
	c0.008-0.428,0.016-0.855,0.025-1.283c4.511,0,9.022,0,13.533,0C462.422,291.817,462.377,292.245,462.331,292.672z"/>
<path fill="#E0C1C4" stroke="#8E2E1E" stroke-miterlimit="10" d="M498.016,296.758c4.451,0,8.902,0,13.353,0
	c0,0.421,0,0.842,0,1.263c-4.513,0-9.027,0-13.54,0C497.891,297.599,497.954,297.178,498.016,296.758z"/>
<path fill="#E0C1C4" stroke="#8E2E1E" stroke-miterlimit="10" d="M497.796,291.376c4.507,0,9.015,0,13.522,0c0,0.43,0,0.861,0,1.291
	c-4.507,0-9.015,0-13.522,0C497.796,292.237,497.796,291.806,497.796,291.376z"/>
</svg>
